<svg height="512pt" viewBox="-11 0 512 512" width="512pt" xmlns="http://www.w3.org/2000/svg"><path d="m245.292969 411.585938c48.546875 0 88.042969-39.496094 88.042969-88.046876 0-48.546874-39.496094-88.042968-88.042969-88.042968-48.550781 0-88.046875 39.496094-88.046875 88.042968 0 48.550782 39.496094 88.046876 88.046875 88.046876zm-51.867188-101.902344c5.789063-5.792969 15.175781-5.792969 20.96875 0l19.351563 19.351562 42.445312-42.445312c5.792969-5.789063 15.179688-5.789063 20.96875 0 5.789063 5.789062 5.789063 15.175781 0 20.96875l-52.929687 52.929687c-2.78125 2.78125-6.550781 4.339844-10.484375 4.339844s-7.703125-1.558594-10.484375-4.339844l-29.835938-29.839843c-5.789062-5.789063-5.789062-15.175782 0-20.964844zm0 0"/><path d="m0 464.050781c0 26.4375 21.511719 47.949219 47.949219 47.949219h394.679687c26.4375 0 47.949219-21.511719 47.949219-47.949219v-299.320312h-490.578125zm245.292969-258.207031c64.898437 0 117.695312 52.796875 117.695312 117.695312 0 64.898438-52.796875 117.699219-117.695312 117.699219-64.898438 0-117.699219-52.800781-117.699219-117.699219 0-64.898437 52.800781-117.695312 117.699219-117.695312zm0 0"/><path d="m490.574219 135.078125v-45.675781c0-26.441406-21.507813-47.949219-47.949219-47.949219h-27.03125v26.628906c0 8.195313-6.644531 14.824219-14.828125 14.824219-8.191406 0-14.824219-6.628906-14.824219-14.824219v-26.628906h-29.140625v26.628906c0 8.195313-6.628906 14.824219-14.824219 14.824219-8.183593 0-14.828124-6.628906-14.828124-14.824219v-26.628906h-163.710938v26.628906c0 8.195313-6.640625 14.824219-14.824219 14.824219-8.195312 0-14.828125-6.628906-14.828125-14.824219v-26.628906h-29.136718v26.628906c0 8.195313-6.644532 14.824219-14.828126 14.824219-8.183593 0-14.824218-6.628906-14.824218-14.824219v-26.628906h-27.042969c-26.441406 0-47.94921875 21.507813-47.94921875 47.949219v45.675781zm0 0"/><path d="m415.59375 14.824219c0-8.183594-6.644531-14.824219-14.828125-14.824219-8.191406 0-14.824219 6.640625-14.824219 14.824219v26.628906h29.652344zm0 0"/><path d="m356.800781 14.824219c0-8.183594-6.628906-14.824219-14.824219-14.824219-8.183593 0-14.828124 6.640625-14.828124 14.824219v26.628906h29.652343zm0 0"/><path d="m163.4375 14.824219c0-8.183594-6.640625-14.824219-14.824219-14.824219-8.195312 0-14.828125 6.640625-14.828125 14.824219v26.628906h29.652344zm0 0"/><path d="m104.648438 14.824219c0-8.183594-6.644532-14.824219-14.828126-14.824219-8.183593 0-14.824218 6.640625-14.824218 14.824219v26.628906h29.652344zm0 0"/></svg>