<svg height="512" viewBox="0 0 64 64" width="512" xmlns="http://www.w3.org/2000/svg"><g id="Administrator-Smartphone-Cloud-Office-Internet"><path d="m43.5 39.99a6.445 6.445 0 0 0 -1.02-.59l-5.28-2.4-2.2-1a2.772 2.772 0 0 1 -.18 1 2.988 2.988 0 0 1 -5.64 0 2.772 2.772 0 0 1 -.18-1l-2.2 1-5.28 2.4a6.445 6.445 0 0 0 -1.02.59 6 6 0 0 0 -2.5 4.88v8.13h28v-8.13a6 6 0 0 0 -2.5-4.88z" fill="#3d9ae2"/><path d="m35 33v3a2.772 2.772 0 0 1 -.18 1 2.988 2.988 0 0 1 -5.64 0 2.772 2.772 0 0 1 -.18-1v-3z" fill="#ffc477"/><path d="m61 53v4h-3-52-3v-4h15 6 16 6z" fill="#a97c50"/><path d="m58 9a3 3 0 0 1 0 6h-12a3 3 0 0 1 0-6h.28a1.984 1.984 0 0 1 1.72-3 2.058 2.058 0 0 1 1.07.31 3.993 3.993 0 1 1 7.38 2.69z" fill="#e6e7e8"/><path d="m6 57h52v4h-52z" fill="#a97c50"/><path d="m42 49v2a2.006 2.006 0 0 1 -2 2h-16a2.006 2.006 0 0 1 -2-2v-2z" fill="#acabb1"/><path d="m40 24a2 2 0 0 1 0 4 2.03 2.03 0 0 1 -1.04-.29 5.529 5.529 0 0 0 .04-.71v-2.73a2 2 0 0 1 1-.27z" fill="#ffb655"/><path d="m35 33v2.32a6.958 6.958 0 0 1 -6 0v-2.32z" fill="#ffb655"/><path d="m43.61 39.33-.11.66-1.5 9.01h-20l-1.5-9.01-.11-.66a2 2 0 0 1 1.97-2.33h19.28a2 2 0 0 1 1.97 2.33z" fill="#c6c5ca"/><path d="m25 27a5.529 5.529 0 0 0 .04.71 2.03 2.03 0 0 1 -1.04.29 2 2 0 1 1 1-3.73z" fill="#ffb655"/><path d="m17 7v12a4 4 0 0 1 -4 4h-6a3.876 3.876 0 0 1 -1.79-.43 3.976 3.976 0 0 1 -2.21-3.57v-12a4 4 0 0 1 4-4h6a4 4 0 0 1 4 4z" fill="#5aaae7"/><circle cx="32" cy="43" fill="#e6e7e8" r="2"/><path d="m17 7v12a4 4 0 0 1 -4 4h-6a3.876 3.876 0 0 1 -1.79-.43l11.27-17.54a3.994 3.994 0 0 1 .52 1.97z" fill="#3d9ae2"/><path d="m41 18v3l-2 2h-.56a2.009 2.009 0 0 1 -1.9-1.37l-.54-1.63-1.87 1.4a7.982 7.982 0 0 1 -4.8 1.6h-4.33l-3-3 1-2-2-4h16a4 4 0 0 1 4 4z" fill="#57565c"/><path d="m39 24.27v2.73a5.529 5.529 0 0 1 -.04.71 6.937 6.937 0 0 1 -3.96 5.61 7.017 7.017 0 0 1 -7.95-1.37 6.938 6.938 0 0 1 -2.01-4.24 5.529 5.529 0 0 1 -.04-.71v-4h4.33a7.982 7.982 0 0 0 4.8-1.6l1.87-1.4.54 1.63a2.009 2.009 0 0 0 1.9 1.37h.56z" fill="#ffc477"/><path d="m6 57h52v2h-52z" fill="#8b5e3c"/><path d="m28 25h2v2h-2z" fill="#ee8700"/><path d="m34 25h2v2h-2z" fill="#ee8700"/><path d="m8 6h4v2h-4z" fill="#3d9ae2"/><g fill="#1e81ce"><path d="m9 18h2v2h-2z"/><path d="m7 10h6v2h-6z"/><path d="m7 14h6v2h-6z"/><path d="m54 37h2v2h-2z"/><path d="m57.122 35.878a3.006 3.006 0 0 0 -4.244 0l-1.414-1.414a5.008 5.008 0 0 1 7.072 0z"/><path d="m59.95 33.05a7 7 0 0 0 -9.9 0l-1.414-1.414a9 9 0 0 1 12.728 0z"/></g><path d="m52 46h-3v-2h2.586l2.707-2.707 1.414 1.414-3 3a1 1 0 0 1 -.707.293z" fill="#ffa733"/><path d="m16.293 37.707-7-7a1 1 0 0 1 -.293-.707v-4h2v3.586l6.707 6.707z" fill="#ffa733"/><path d="m52 24h-7v-2h6v-4h2v5a1 1 0 0 1 -1 1z" fill="#ffa733"/></g></svg>