<svg id="Capa_1" enable-background="new 0 0 512 512" height="512" viewBox="0 0 512 512" width="512" xmlns="http://www.w3.org/2000/svg"><path d="m326 200h-140c-8.284 0-15-6.716-15-15v-10c0-46.869 38.131-85 85-85s85 38.131 85 85v10c0 8.284-6.716 15-15 15z" fill="#556e87"/><path d="m326 200c8.284 0 15-6.716 15-15v-10c0-46.869-38.131-85-85-85v110z" fill="#435569"/><path d="m256 120c-33.084 0-60-26.916-60-60s26.916-60 60-60 60 26.916 60 60-26.917 60-60 60z" fill="#ffd0af"/><path d="m256 0v120c33.084 0 60-26.916 60-60s-26.916-60-60-60z" fill="#fabe8c"/><path d="m241.04 356h-140c-8.284 0-15-6.716-15-15v-10c0-46.869 38.131-85 85-85s85 38.131 85 85v10c0 8.284-6.716 15-15 15z" fill="#c8e1f5"/><path d="m241.04 356c8.284 0 15-6.716 15-15v-10c0-46.869-38.131-85-85-85v110z" fill="#aacde6"/><path d="m171.039 276c-33.084 0-60-26.916-60-60s26.916-60 60-60 60 26.916 60 60-26.916 60-60 60z" fill="#ffd0af"/><path d="m171.04 156v120c33.084 0 60-26.916 60-60s-26.917-60-60-60z" fill="#fabe8c"/><path d="m156 512h-140c-8.284 0-15-6.716-15-15v-10c0-46.869 38.131-85 85-85s85 38.131 85 85v10c0 8.284-6.716 15-15 15z" fill="#00afff"/><path d="m156 512c8.284 0 15-6.716 15-15v-10c0-46.869-38.131-85-85-85v110z" fill="#008cfa"/><path d="m86 432c-33.084 0-60-26.916-60-60s26.916-60 60-60 60 26.916 60 60-26.917 60-60 60z" fill="#ffd0af"/><path d="m86 312v120c33.084 0 60-26.916 60-60s-26.916-60-60-60z" fill="#fabe8c"/><path d="m410.964 356h-140c-8.284 0-15-6.716-15-15v-10c0-46.869 38.131-85 85-85s85 38.131 85 85v10c0 8.284-6.715 15-15 15z" fill="#fff064"/><path d="m410.964 356c8.284 0 15-6.716 15-15v-10c0-46.869-38.131-85-85-85v110z" fill="#ffdc1e"/><path d="m340.964 276c-33.084 0-60-26.916-60-60s26.916-60 60-60 60 26.916 60 60-26.916 60-60 60z" fill="#ffd0af"/><path d="m340.964 156v120c33.084 0 60-26.916 60-60s-26.916-60-60-60z" fill="#fabe8c"/><path d="m496 512h-140c-8.284 0-15-6.716-15-15v-10c0-46.869 38.131-85 85-85s85 38.131 85 85v10c0 8.284-6.716 15-15 15z" fill="#64e6e6"/><path d="m496 512c8.284 0 15-6.716 15-15v-10c0-46.869-38.131-85-85-85v110z" fill="#00cdcd"/><path d="m426 432c-33.084 0-60-26.916-60-60s26.916-60 60-60 60 26.916 60 60-26.917 60-60 60z" fill="#ffd0af"/><path d="m426 312v120c33.084 0 60-26.916 60-60s-26.916-60-60-60z" fill="#fabe8c"/><path d="m326 512h-140c-8.284 0-15-6.716-15-15v-10c0-46.869 38.131-85 85-85s85 38.131 85 85v10c0 8.284-6.716 15-15 15z" fill="#ff823c"/><path d="m326 512c8.284 0 15-6.716 15-15v-10c0-46.869-38.131-85-85-85v110z" fill="#f06923"/><path d="m256 432c-33.084 0-60-26.916-60-60s26.916-60 60-60 60 26.916 60 60-26.917 60-60 60z" fill="#ffd0af"/><path d="m256 312v120c33.084 0 60-26.916 60-60s-26.916-60-60-60z" fill="#fabe8c"/></svg>